<mxfile host="app.diagrams.net" modified="2023-04-10T10:50:30.942Z" agent="Mozilla/5.0 (Windows NT 10.0; Win64; x64) AppleWebKit/537.36 (KHTML, like Gecko) Chrome/112.0.0.0 Safari/537.36" etag="S7qaVvQy3Y3pW-AMj7BZ" version="21.1.5" type="device">
  <diagram name="Page-1" id="2YBvvXClWsGukQMizWep">
    <mxGraphModel dx="1862" dy="603" grid="1" gridSize="10" guides="1" tooltips="1" connect="1" arrows="1" fold="1" page="1" pageScale="1" pageWidth="850" pageHeight="1100" background="#ffffff" math="0" shadow="0">
      <root>
        <mxCell id="0" />
        <mxCell id="1" parent="0" />
        <mxCell id="aM9ryv3xv72pqoxQDRHE-1" value=":CreateAccountCommand" style="shape=umlLifeline;perimeter=lifelinePerimeter;whiteSpace=wrap;html=1;container=0;dropTarget=0;collapsible=0;recursiveResize=0;outlineConnect=0;portConstraint=eastwest;newEdgeStyle={&quot;edgeStyle&quot;:&quot;elbowEdgeStyle&quot;,&quot;elbow&quot;:&quot;vertical&quot;,&quot;curved&quot;:0,&quot;rounded&quot;:0};" parent="1" vertex="1">
          <mxGeometry x="70" y="60" width="140" height="640" as="geometry" />
        </mxCell>
        <mxCell id="aM9ryv3xv72pqoxQDRHE-2" value="" style="html=1;points=[];perimeter=orthogonalPerimeter;outlineConnect=0;targetShapes=umlLifeline;portConstraint=eastwest;newEdgeStyle={&quot;edgeStyle&quot;:&quot;elbowEdgeStyle&quot;,&quot;elbow&quot;:&quot;vertical&quot;,&quot;curved&quot;:0,&quot;rounded&quot;:0};" parent="aM9ryv3xv72pqoxQDRHE-1" vertex="1">
          <mxGeometry x="65" y="50" width="10" height="580" as="geometry" />
        </mxCell>
        <mxCell id="aM9ryv3xv72pqoxQDRHE-3" value="execute(:UI, :AccountList)" style="html=1;verticalAlign=bottom;startArrow=oval;endArrow=block;startSize=8;edgeStyle=elbowEdgeStyle;elbow=vertical;curved=0;rounded=0;" parent="aM9ryv3xv72pqoxQDRHE-1" target="aM9ryv3xv72pqoxQDRHE-2" edge="1">
          <mxGeometry x="-0.5625" relative="1" as="geometry">
            <mxPoint x="-230" y="50" as="sourcePoint" />
            <Array as="points">
              <mxPoint x="-40" y="50" />
            </Array>
            <mxPoint x="-1" as="offset" />
          </mxGeometry>
        </mxCell>
        <mxCell id="aM9ryv3xv72pqoxQDRHE-5" value=":UI" style="shape=umlLifeline;perimeter=lifelinePerimeter;whiteSpace=wrap;html=1;container=0;dropTarget=0;collapsible=0;recursiveResize=0;outlineConnect=0;portConstraint=eastwest;newEdgeStyle={&quot;edgeStyle&quot;:&quot;elbowEdgeStyle&quot;,&quot;elbow&quot;:&quot;vertical&quot;,&quot;curved&quot;:0,&quot;rounded&quot;:0};" parent="1" vertex="1">
          <mxGeometry x="220" y="60" width="100" height="640" as="geometry" />
        </mxCell>
        <mxCell id="aM9ryv3xv72pqoxQDRHE-6" value="" style="html=1;points=[];perimeter=orthogonalPerimeter;outlineConnect=0;targetShapes=umlLifeline;portConstraint=eastwest;newEdgeStyle={&quot;edgeStyle&quot;:&quot;elbowEdgeStyle&quot;,&quot;elbow&quot;:&quot;vertical&quot;,&quot;curved&quot;:0,&quot;rounded&quot;:0};" parent="aM9ryv3xv72pqoxQDRHE-5" vertex="1">
          <mxGeometry x="45" y="80" width="10" height="20" as="geometry" />
        </mxCell>
        <mxCell id="N21fCFWaX7JxI2EqyBa2-39" value="" style="html=1;points=[];perimeter=orthogonalPerimeter;outlineConnect=0;targetShapes=umlLifeline;portConstraint=eastwest;newEdgeStyle={&quot;edgeStyle&quot;:&quot;elbowEdgeStyle&quot;,&quot;elbow&quot;:&quot;vertical&quot;,&quot;curved&quot;:0,&quot;rounded&quot;:0};" parent="aM9ryv3xv72pqoxQDRHE-5" vertex="1">
          <mxGeometry x="45" y="350" width="10" height="20" as="geometry" />
        </mxCell>
        <mxCell id="aM9ryv3xv72pqoxQDRHE-7" value="printMessage(:String)" style="html=1;verticalAlign=bottom;endArrow=block;edgeStyle=elbowEdgeStyle;elbow=vertical;curved=0;rounded=0;" parent="1" source="aM9ryv3xv72pqoxQDRHE-2" target="aM9ryv3xv72pqoxQDRHE-6" edge="1">
          <mxGeometry relative="1" as="geometry">
            <mxPoint x="195" y="130" as="sourcePoint" />
            <Array as="points">
              <mxPoint x="210" y="140" />
              <mxPoint x="120" y="130" />
              <mxPoint x="180" y="120" />
            </Array>
          </mxGeometry>
        </mxCell>
        <mxCell id="aM9ryv3xv72pqoxQDRHE-8" value="" style="html=1;verticalAlign=bottom;endArrow=open;dashed=1;endSize=8;edgeStyle=elbowEdgeStyle;elbow=vertical;curved=0;rounded=0;" parent="1" source="aM9ryv3xv72pqoxQDRHE-6" target="aM9ryv3xv72pqoxQDRHE-2" edge="1">
          <mxGeometry relative="1" as="geometry">
            <mxPoint x="120" y="160" as="targetPoint" />
            <Array as="points">
              <mxPoint x="160" y="160" />
              <mxPoint x="190" y="280" />
            </Array>
          </mxGeometry>
        </mxCell>
        <mxCell id="N21fCFWaX7JxI2EqyBa2-1" value="alt" style="shape=umlFrame;whiteSpace=wrap;html=1;pointerEvents=0;" parent="1" vertex="1">
          <mxGeometry x="-70" y="120" width="1010" height="540" as="geometry" />
        </mxCell>
        <mxCell id="N21fCFWaX7JxI2EqyBa2-2" value="[userInputs.length != 2]" style="text;html=1;align=center;verticalAlign=middle;resizable=0;points=[];autosize=1;strokeColor=none;fillColor=none;" parent="1" vertex="1">
          <mxGeometry x="-70" y="150" width="150" height="30" as="geometry" />
        </mxCell>
        <mxCell id="N21fCFWaX7JxI2EqyBa2-5" value="" style="endArrow=none;dashed=1;html=1;rounded=0;exitX=0;exitY=0.149;exitDx=0;exitDy=0;exitPerimeter=0;entryX=1.002;entryY=0.146;entryDx=0;entryDy=0;entryPerimeter=0;" parent="1" source="N21fCFWaX7JxI2EqyBa2-1" target="N21fCFWaX7JxI2EqyBa2-1" edge="1">
          <mxGeometry width="50" height="50" relative="1" as="geometry">
            <mxPoint x="400" y="270" as="sourcePoint" />
            <mxPoint x="450" y="220" as="targetPoint" />
          </mxGeometry>
        </mxCell>
        <mxCell id="N21fCFWaX7JxI2EqyBa2-6" value="[else]" style="text;html=1;align=center;verticalAlign=middle;resizable=0;points=[];autosize=1;strokeColor=none;fillColor=none;" parent="1" vertex="1">
          <mxGeometry x="-80" y="210" width="50" height="30" as="geometry" />
        </mxCell>
        <mxCell id="N21fCFWaX7JxI2EqyBa2-7" value="&amp;lt;&amp;lt;enumeration&amp;gt;&amp;gt;&lt;br&gt;Currrency" style="shape=umlLifeline;perimeter=lifelinePerimeter;whiteSpace=wrap;html=1;container=0;dropTarget=0;collapsible=0;recursiveResize=0;outlineConnect=0;portConstraint=eastwest;newEdgeStyle={&quot;edgeStyle&quot;:&quot;elbowEdgeStyle&quot;,&quot;elbow&quot;:&quot;vertical&quot;,&quot;curved&quot;:0,&quot;rounded&quot;:0};" parent="1" vertex="1">
          <mxGeometry x="330" y="60" width="100" height="640" as="geometry" />
        </mxCell>
        <mxCell id="N21fCFWaX7JxI2EqyBa2-8" value="" style="html=1;points=[];perimeter=orthogonalPerimeter;outlineConnect=0;targetShapes=umlLifeline;portConstraint=eastwest;newEdgeStyle={&quot;edgeStyle&quot;:&quot;elbowEdgeStyle&quot;,&quot;elbow&quot;:&quot;vertical&quot;,&quot;curved&quot;:0,&quot;rounded&quot;:0};" parent="N21fCFWaX7JxI2EqyBa2-7" vertex="1">
          <mxGeometry x="45" y="170" width="10" height="20" as="geometry" />
        </mxCell>
        <mxCell id="N21fCFWaX7JxI2EqyBa2-9" style="edgeStyle=elbowEdgeStyle;rounded=0;orthogonalLoop=1;jettySize=auto;html=1;elbow=vertical;curved=0;" parent="1" source="aM9ryv3xv72pqoxQDRHE-2" target="N21fCFWaX7JxI2EqyBa2-8" edge="1">
          <mxGeometry relative="1" as="geometry">
            <mxPoint x="340" y="220" as="targetPoint" />
            <Array as="points">
              <mxPoint x="330" y="230" />
              <mxPoint x="150" y="220" />
            </Array>
          </mxGeometry>
        </mxCell>
        <mxCell id="N21fCFWaX7JxI2EqyBa2-10" value="valueOf(:String)" style="text;html=1;align=center;verticalAlign=middle;resizable=0;points=[];autosize=1;strokeColor=none;fillColor=none;" parent="1" vertex="1">
          <mxGeometry x="160" y="210" width="110" height="30" as="geometry" />
        </mxCell>
        <mxCell id="N21fCFWaX7JxI2EqyBa2-11" value=":Currency" style="html=1;verticalAlign=bottom;endArrow=open;dashed=1;endSize=8;edgeStyle=elbowEdgeStyle;elbow=vertical;curved=0;rounded=0;" parent="1" source="N21fCFWaX7JxI2EqyBa2-8" target="aM9ryv3xv72pqoxQDRHE-2" edge="1">
          <mxGeometry relative="1" as="geometry">
            <mxPoint x="460" y="250" as="sourcePoint" />
            <mxPoint x="380" y="250" as="targetPoint" />
            <Array as="points">
              <mxPoint x="350" y="250" />
              <mxPoint x="150" y="240" />
            </Array>
          </mxGeometry>
        </mxCell>
        <mxCell id="N21fCFWaX7JxI2EqyBa2-12" value=":AccountList" style="shape=umlLifeline;perimeter=lifelinePerimeter;whiteSpace=wrap;html=1;container=0;dropTarget=0;collapsible=0;recursiveResize=0;outlineConnect=0;portConstraint=eastwest;newEdgeStyle={&quot;edgeStyle&quot;:&quot;elbowEdgeStyle&quot;,&quot;elbow&quot;:&quot;vertical&quot;,&quot;curved&quot;:0,&quot;rounded&quot;:0};" parent="1" vertex="1">
          <mxGeometry x="450" y="60" width="140" height="640" as="geometry" />
        </mxCell>
        <mxCell id="N21fCFWaX7JxI2EqyBa2-13" value="" style="html=1;points=[];perimeter=orthogonalPerimeter;outlineConnect=0;targetShapes=umlLifeline;portConstraint=eastwest;newEdgeStyle={&quot;edgeStyle&quot;:&quot;elbowEdgeStyle&quot;,&quot;elbow&quot;:&quot;vertical&quot;,&quot;curved&quot;:0,&quot;rounded&quot;:0};" parent="N21fCFWaX7JxI2EqyBa2-12" vertex="1">
          <mxGeometry x="65" y="210" width="10" height="120" as="geometry" />
        </mxCell>
        <mxCell id="N21fCFWaX7JxI2EqyBa2-15" style="edgeStyle=elbowEdgeStyle;rounded=0;orthogonalLoop=1;jettySize=auto;html=1;elbow=vertical;curved=0;" parent="1" source="aM9ryv3xv72pqoxQDRHE-2" target="N21fCFWaX7JxI2EqyBa2-13" edge="1">
          <mxGeometry relative="1" as="geometry">
            <Array as="points">
              <mxPoint x="210" y="270" />
              <mxPoint x="340" y="260" />
            </Array>
          </mxGeometry>
        </mxCell>
        <mxCell id="N21fCFWaX7JxI2EqyBa2-16" value="addAccount(currency :Currency, initialBalance :float)" style="edgeLabel;html=1;align=center;verticalAlign=middle;resizable=0;points=[];" parent="N21fCFWaX7JxI2EqyBa2-15" vertex="1" connectable="0">
          <mxGeometry x="-0.1695" y="-1" relative="1" as="geometry">
            <mxPoint x="1" y="-11" as="offset" />
          </mxGeometry>
        </mxCell>
        <mxCell id="N21fCFWaX7JxI2EqyBa2-17" value="alt" style="shape=umlFrame;whiteSpace=wrap;html=1;pointerEvents=0;" parent="1" vertex="1">
          <mxGeometry x="-30" y="210" width="800" height="360" as="geometry" />
        </mxCell>
        <mxCell id="N21fCFWaX7JxI2EqyBa2-18" value="[No Exception]" style="text;html=1;align=center;verticalAlign=middle;resizable=0;points=[];autosize=1;strokeColor=none;fillColor=none;" parent="1" vertex="1">
          <mxGeometry x="-30" y="250" width="100" height="30" as="geometry" />
        </mxCell>
        <mxCell id="N21fCFWaX7JxI2EqyBa2-19" value="" style="endArrow=none;dashed=1;html=1;rounded=0;exitX=-0.003;exitY=0.678;exitDx=0;exitDy=0;exitPerimeter=0;entryX=1.002;entryY=0.675;entryDx=0;entryDy=0;entryPerimeter=0;" parent="1" source="N21fCFWaX7JxI2EqyBa2-17" target="N21fCFWaX7JxI2EqyBa2-17" edge="1">
          <mxGeometry width="50" height="50" relative="1" as="geometry">
            <mxPoint x="-60" y="210" as="sourcePoint" />
            <mxPoint x="952" y="209" as="targetPoint" />
          </mxGeometry>
        </mxCell>
        <mxCell id="N21fCFWaX7JxI2EqyBa2-20" value=":Account" style="shape=umlLifeline;perimeter=lifelinePerimeter;whiteSpace=wrap;html=1;container=0;dropTarget=0;collapsible=0;recursiveResize=0;outlineConnect=0;portConstraint=eastwest;newEdgeStyle={&quot;edgeStyle&quot;:&quot;elbowEdgeStyle&quot;,&quot;elbow&quot;:&quot;vertical&quot;,&quot;curved&quot;:0,&quot;rounded&quot;:0};" parent="1" vertex="1">
          <mxGeometry x="590" y="280" width="140" height="420" as="geometry" />
        </mxCell>
        <mxCell id="N21fCFWaX7JxI2EqyBa2-21" value="" style="html=1;points=[];perimeter=orthogonalPerimeter;outlineConnect=0;targetShapes=umlLifeline;portConstraint=eastwest;newEdgeStyle={&quot;edgeStyle&quot;:&quot;elbowEdgeStyle&quot;,&quot;elbow&quot;:&quot;vertical&quot;,&quot;curved&quot;:0,&quot;rounded&quot;:0};" parent="N21fCFWaX7JxI2EqyBa2-20" vertex="1">
          <mxGeometry x="65" y="40" width="10" height="20" as="geometry" />
        </mxCell>
        <mxCell id="N21fCFWaX7JxI2EqyBa2-22" style="edgeStyle=elbowEdgeStyle;rounded=0;orthogonalLoop=1;jettySize=auto;html=1;elbow=vertical;curved=0;" parent="1" source="N21fCFWaX7JxI2EqyBa2-13" edge="1">
          <mxGeometry relative="1" as="geometry">
            <mxPoint x="590" y="300" as="targetPoint" />
            <Array as="points">
              <mxPoint x="550" y="300" />
            </Array>
          </mxGeometry>
        </mxCell>
        <mxCell id="N21fCFWaX7JxI2EqyBa2-23" value="Account(initialBalance :float, &lt;br&gt;currency: Currency)" style="edgeLabel;html=1;align=center;verticalAlign=middle;resizable=0;points=[];" parent="N21fCFWaX7JxI2EqyBa2-22" vertex="1" connectable="0">
          <mxGeometry x="-0.266" y="3" relative="1" as="geometry">
            <mxPoint x="51" y="-37" as="offset" />
          </mxGeometry>
        </mxCell>
        <mxCell id="N21fCFWaX7JxI2EqyBa2-24" value="" style="html=1;verticalAlign=bottom;endArrow=open;dashed=1;endSize=8;edgeStyle=elbowEdgeStyle;elbow=vertical;curved=0;rounded=0;" parent="1" source="N21fCFWaX7JxI2EqyBa2-21" target="N21fCFWaX7JxI2EqyBa2-13" edge="1">
          <mxGeometry x="0.3077" y="25" relative="1" as="geometry">
            <mxPoint x="450" y="300" as="sourcePoint" />
            <mxPoint x="370" y="300" as="targetPoint" />
            <Array as="points">
              <mxPoint x="630" y="340" />
              <mxPoint x="620" y="350" />
            </Array>
            <mxPoint as="offset" />
          </mxGeometry>
        </mxCell>
        <mxCell id="N21fCFWaX7JxI2EqyBa2-26" style="edgeStyle=elbowEdgeStyle;rounded=0;orthogonalLoop=1;jettySize=auto;html=1;elbow=vertical;curved=0;" parent="1" source="N21fCFWaX7JxI2EqyBa2-13" target="N21fCFWaX7JxI2EqyBa2-29" edge="1">
          <mxGeometry relative="1" as="geometry">
            <mxPoint x="811.5999755859375" y="390" as="targetPoint" />
            <Array as="points">
              <mxPoint x="820" y="360" />
              <mxPoint x="790" y="365" />
              <mxPoint x="810" y="350" />
              <mxPoint x="730" y="390" />
              <mxPoint x="910" y="350" />
            </Array>
          </mxGeometry>
        </mxCell>
        <mxCell id="N21fCFWaX7JxI2EqyBa2-27" value="put(:Currency, :Account)" style="edgeLabel;html=1;align=center;verticalAlign=middle;resizable=0;points=[];" parent="N21fCFWaX7JxI2EqyBa2-26" vertex="1" connectable="0">
          <mxGeometry x="-0.3407" y="3" relative="1" as="geometry">
            <mxPoint y="-7" as="offset" />
          </mxGeometry>
        </mxCell>
        <mxCell id="N21fCFWaX7JxI2EqyBa2-28" value=":HashMap" style="shape=umlLifeline;perimeter=lifelinePerimeter;whiteSpace=wrap;html=1;container=0;dropTarget=0;collapsible=0;recursiveResize=0;outlineConnect=0;portConstraint=eastwest;newEdgeStyle={&quot;edgeStyle&quot;:&quot;elbowEdgeStyle&quot;,&quot;elbow&quot;:&quot;vertical&quot;,&quot;curved&quot;:0,&quot;rounded&quot;:0};" parent="1" vertex="1">
          <mxGeometry x="780" y="60" width="140" height="640" as="geometry" />
        </mxCell>
        <mxCell id="N21fCFWaX7JxI2EqyBa2-29" value="" style="html=1;points=[];perimeter=orthogonalPerimeter;outlineConnect=0;targetShapes=umlLifeline;portConstraint=eastwest;newEdgeStyle={&quot;edgeStyle&quot;:&quot;elbowEdgeStyle&quot;,&quot;elbow&quot;:&quot;vertical&quot;,&quot;curved&quot;:0,&quot;rounded&quot;:0};" parent="N21fCFWaX7JxI2EqyBa2-28" vertex="1">
          <mxGeometry x="65" y="300" width="10" height="20" as="geometry" />
        </mxCell>
        <mxCell id="N21fCFWaX7JxI2EqyBa2-30" value="" style="html=1;verticalAlign=bottom;endArrow=open;dashed=1;endSize=8;edgeStyle=elbowEdgeStyle;elbow=vertical;curved=0;rounded=0;" parent="1" source="N21fCFWaX7JxI2EqyBa2-28" target="N21fCFWaX7JxI2EqyBa2-13" edge="1">
          <mxGeometry relative="1" as="geometry">
            <mxPoint x="720" y="389.5" as="sourcePoint" />
            <mxPoint x="640" y="389.5" as="targetPoint" />
            <Array as="points">
              <mxPoint x="720" y="380" />
              <mxPoint x="740" y="390" />
              <mxPoint x="520" y="390" />
            </Array>
          </mxGeometry>
        </mxCell>
        <mxCell id="N21fCFWaX7JxI2EqyBa2-31" value="[Exception]" style="text;html=1;align=center;verticalAlign=middle;resizable=0;points=[];autosize=1;strokeColor=none;fillColor=none;" parent="1" vertex="1">
          <mxGeometry x="-35" y="450" width="80" height="30" as="geometry" />
        </mxCell>
        <mxCell id="N21fCFWaX7JxI2EqyBa2-32" value="" style="html=1;points=[];perimeter=orthogonalPerimeter;outlineConnect=0;targetShapes=umlLifeline;portConstraint=eastwest;newEdgeStyle={&quot;edgeStyle&quot;:&quot;elbowEdgeStyle&quot;,&quot;elbow&quot;:&quot;vertical&quot;,&quot;curved&quot;:0,&quot;rounded&quot;:0};" parent="1" vertex="1">
          <mxGeometry x="265" y="490" width="10" height="20" as="geometry" />
        </mxCell>
        <mxCell id="N21fCFWaX7JxI2EqyBa2-34" value="printf(:String, :String)" style="html=1;verticalAlign=bottom;endArrow=block;edgeStyle=elbowEdgeStyle;elbow=vertical;curved=0;rounded=0;" parent="1" source="aM9ryv3xv72pqoxQDRHE-2" edge="1">
          <mxGeometry relative="1" as="geometry">
            <mxPoint x="155" y="490" as="sourcePoint" />
            <Array as="points">
              <mxPoint x="210" y="490" />
              <mxPoint x="120" y="480" />
              <mxPoint x="180" y="470" />
            </Array>
            <mxPoint x="265" y="490" as="targetPoint" />
          </mxGeometry>
        </mxCell>
        <mxCell id="N21fCFWaX7JxI2EqyBa2-35" value="" style="html=1;verticalAlign=bottom;endArrow=open;dashed=1;endSize=8;edgeStyle=elbowEdgeStyle;elbow=vertical;curved=0;rounded=0;" parent="1" target="aM9ryv3xv72pqoxQDRHE-2" edge="1">
          <mxGeometry relative="1" as="geometry">
            <mxPoint x="155" y="509" as="targetPoint" />
            <Array as="points">
              <mxPoint x="160" y="509" />
              <mxPoint x="190" y="629" />
            </Array>
            <mxPoint x="265" y="509" as="sourcePoint" />
          </mxGeometry>
        </mxCell>
        <mxCell id="N21fCFWaX7JxI2EqyBa2-38" value="" style="html=1;verticalAlign=bottom;endArrow=open;dashed=1;endSize=8;edgeStyle=elbowEdgeStyle;elbow=vertical;curved=0;rounded=0;exitX=-0.3;exitY=1.015;exitDx=0;exitDy=0;exitPerimeter=0;" parent="1" source="N21fCFWaX7JxI2EqyBa2-13" target="aM9ryv3xv72pqoxQDRHE-2" edge="1">
          <mxGeometry relative="1" as="geometry">
            <mxPoint x="485" y="389.5" as="sourcePoint" />
            <mxPoint x="160" y="389.5" as="targetPoint" />
            <Array as="points">
              <mxPoint x="420" y="392" />
              <mxPoint x="490" y="400" />
              <mxPoint x="375" y="399.5" />
              <mxPoint x="155" y="399.5" />
            </Array>
          </mxGeometry>
        </mxCell>
        <mxCell id="N21fCFWaX7JxI2EqyBa2-40" value="printf(:String, :String)" style="html=1;verticalAlign=bottom;endArrow=block;edgeStyle=elbowEdgeStyle;elbow=vertical;curved=0;rounded=0;" parent="1" source="aM9ryv3xv72pqoxQDRHE-2" edge="1">
          <mxGeometry relative="1" as="geometry">
            <mxPoint x="155" y="410" as="sourcePoint" />
            <Array as="points">
              <mxPoint x="210" y="410" />
              <mxPoint x="120" y="400" />
              <mxPoint x="180" y="390" />
            </Array>
            <mxPoint x="265" y="410" as="targetPoint" />
          </mxGeometry>
        </mxCell>
        <mxCell id="N21fCFWaX7JxI2EqyBa2-41" value="" style="html=1;verticalAlign=bottom;endArrow=open;dashed=1;endSize=8;edgeStyle=elbowEdgeStyle;elbow=vertical;curved=0;rounded=0;" parent="1" target="aM9ryv3xv72pqoxQDRHE-2" edge="1">
          <mxGeometry relative="1" as="geometry">
            <mxPoint x="155" y="430" as="targetPoint" />
            <Array as="points">
              <mxPoint x="160" y="430" />
              <mxPoint x="190" y="550" />
            </Array>
            <mxPoint x="265" y="430" as="sourcePoint" />
          </mxGeometry>
        </mxCell>
        <mxCell id="N21fCFWaX7JxI2EqyBa2-42" value="" style="html=1;verticalAlign=bottom;endArrow=open;dashed=1;endSize=8;edgeStyle=elbowEdgeStyle;elbow=vertical;curved=0;rounded=0;" parent="1" edge="1">
          <mxGeometry relative="1" as="geometry">
            <mxPoint x="135" y="690" as="sourcePoint" />
            <mxPoint x="-160" y="690" as="targetPoint" />
          </mxGeometry>
        </mxCell>
      </root>
    </mxGraphModel>
  </diagram>
</mxfile>
